<svg width="363" height="85" viewBox="0 0 363 85" fill="none" xmlns="http://www.w3.org/2000/svg">
<path d="M0 30C0 13.4315 13.4315 0 30 0H90H133.219C140.792 0 148.084 2.86359 153.633 8.0162L160.658 14.5396C171.717 24.8088 188.683 25.2639 200.277 15.6024L210.656 6.95336C216.047 2.46049 222.843 0 229.861 0H271.5H333C349.569 0 363 13.4315 363 30V55C363 71.5685 349.569 85 333 85H271.5H228.931C222.483 85 216.205 82.9219 211.03 79.0739L198.903 70.056C187.807 61.8051 172.509 62.2071 161.861 71.0292L153.327 78.1006C147.945 82.5598 141.175 85 134.186 85H90H30C13.4315 85 0 71.5685 0 55V30Z" fill="#0161EF"/>
</svg>
